<?xml version="1.0" encoding="UTF-8"?>
<svg width="1200pt" height="1200pt" version="1.1" viewBox="0 0 1200 1200" xmlns="http://www.w3.org/2000/svg">
 <path d="m1058.9 585.47-199.69 199.69c-28.922 28.219-75.234 27.609-103.31-1.3125-24.375-24.141-29.062-61.781-11.156-91.078l-87.844-87.844-71.297 71.531c2.7656 23.531-5.5312 46.922-22.312 63.469l-310.78 310.45c-30.234 30.234-79.219 30.234-109.45 0s-30.234-79.219 0-109.45l310.55-310.45c22.219-22.078 55.453-28.781 84.469-16.922l63.469-63.469-87.844-87.844c-35.062 21.375-80.766 10.219-102.14-24.938-17.391-28.688-13.453-65.391 9.6094-89.766l199.69-199.69c29.766-28.312 76.688-27.141 105 2.5312 23.297 24.469 27.234 61.547 9.375 90.375l230.53 230.53c34.547-22.219 80.531-12.141 102.61 22.453 18.703 29.156 14.766 67.219-9.375 92.062z"/>
</svg>
