<svg xmlns="http://www.w3.org/2000/svg" viewBox="0 0 365.3 65.1"><path d="M54.5 0H0v19.8l.1 10.1A37.237 37.237 0 001 38a30.532 30.532 0 002.4 7A37.622 37.622 0 0011 55.5a50.706 50.706 0 004.4 3.7 38.654 38.654 0 004.3 2.7 45.39 45.39 0 006.8 3l.7.2.7-.2a27.606 27.606 0 006.8-3 38.654 38.654 0 004.3-2.7 39.147 39.147 0 004.4-3.7A35.724 35.724 0 0051 45a41.263 41.263 0 002.4-7 37.237 37.237 0 00.9-8.1l.1-10.1z" fill="#fff"></path><path d="M.6 20.4l.1 9.5a34.804 34.804 0 00.9 7.9 32.044 32.044 0 002.3 6.8A36.823 36.823 0 0011.4 55a48.228 48.228 0 004.3 3.6 49.413 49.413 0 004.2 2.7 33.106 33.106 0 006.7 2.9l.5.2.5-.2a33.106 33.106 0 006.7-2.9 30.116 30.116 0 004.2-2.7 37.262 37.262 0 004.3-3.6 37.823 37.823 0 007.5-10.3 34.06 34.06 0 002.3-6.8 35.46 35.46 0 00.9-7.9l.1-9.5zm52.2 9.5a39.445 39.445 0 01-.8 7.7 30.369 30.369 0 01-2.3 6.6 33.07 33.07 0 01-7.3 10 27.858 27.858 0 01-4.2 3.5 35.36 35.36 0 01-4.1 2.6 31.116 31.116 0 01-6.5 2.8l-.3.1-.3.1a31.116 31.116 0 01-6.5-2.8c-1.4-.8-2.8-1.7-4.1-2.6a48.666 48.666 0 01-4.2-3.5 35.731 35.731 0 01-7.3-10 30.369 30.369 0 01-2.3-6.6 33.017 33.017 0 01-.8-7.7l-.1-8.5H53z" fill="#122851"></path><path d="M3.3 37.4a31.135 31.135 0 002.2 6.5 32.83 32.83 0 007.1 9.8 44.67 44.67 0 004.1 3.5c1.3.9 2.6 1.8 4 2.6a29.542 29.542 0 006.3 2.8h.2a29.542 29.542 0 006.3-2.8 34.187 34.187 0 004-2.6 34.407 34.407 0 004.1-3.5 31.178 31.178 0 007.1-9.8 29.291 29.291 0 002.2-6.5 32.175 32.175 0 00.8-7.6l.1-8H2.4l.1 8a27.681 27.681 0 00.8 7.6m48.3-15.1l-.1 7.5C51.6 51.3 33 60.4 27.2 62 21.5 60.4 2.9 51.3 2.9 29.8l-.1-7.5zM.6.6h53.2v4H.6z" fill="#122851"></path><path fill="#900" d="M32 42.2h9.5v9.5H32zm0-19.1h9.5v9.5H32zm-19.1 0h9.5v9.5h-9.5zm0 19.1h9.5v9.5h-9.5zm9.6-9.6H32v9.5h-9.5zm0 19.1v7.5a25.536 25.536 0 004.8 2 32.591 32.591 0 004.8-2v-7.5zm28.2-19.1h-9.1v9.5h6.8a29.112 29.112 0 001.6-5c.3-1.5.5-3 .7-4.5m-37.8 0H3.8a23.376 23.376 0 00.7 4.5 29.112 29.112 0 001.6 5h6.8z"></path><path fill="#122851" d="M.6 7.3L.7 19h53.2l-.1-11.7H.6zm91.8 24.2c0 5.5-4.9 11.1-13.6 11.1a20.156 20.156 0 01-9-2.1 2.692 2.692 0 01-1-2.4c0-1.7.1-3.4.1-5 .1-.7.2-1.6 1.2-1.6 1.1 0 1.3 2.2 1.7 3.9.8 3.5 3.3 5.7 7.4 5.7 4 0 7.6-2.6 7.6-6.5 0-4.1-3-6.2-7-7.9-.9-.3-1.8-.8-2.7-1.2-3.9-1.6-7.6-4.1-7.6-9 0-6.9 7.1-9.7 11.8-9.7a27.215 27.215 0 018 1.2c1 .4 1 .9 1 1.9.1 1.4.2 2.9.2 4.3 0 .6-.2 1.2-1 1.2s-1-.8-1.3-1.5c-1-3.5-2.9-5.5-6.8-5.5-3.3 0-6.4 1.8-6.4 5.3 0 4.3 5.2 6 9.3 7.8 4 1.6 8.1 4.3 8.1 10zm3.1-1.3c0-7.6 7.1-13.3 14.6-13.3a14.982 14.982 0 016.9 1.7 1.763 1.763 0 01.8 1.5v2.7c-.1.7-.3 1.5-1 1.5-1.2 0-2-2-3.5-3.9-1.2-1.4-2.3-2.1-3.7-2.1-3.9 0-8.2 4.1-8.2 10.2 0 5.9 4.1 11.1 9.6 11.1a8.037 8.037 0 005.6-2c.2-.2.8-.8 1.2-.8a.645.645 0 01.6.6v.1c0 .8-3.5 4.9-10 4.9a12.573 12.573 0 01-12.8-12.2c-.1.1-.1.1-.1 0zM123 12c0-3.9 0-4.3-2.8-4.5-.7-.1-1.2-.2-1.2-.8s.5-.7 1.5-.8a18.82 18.82 0 005.6-1.6 3.63 3.63 0 011.7-.7c.6 0 .6.3.6 1.1v15.2c0 .4.1.7.3.7a2.47 2.47 0 00.9-.4 10.634 10.634 0 017.9-3.2c7.3 0 8.1 5.4 8.1 9.8v9.5c0 2.9 0 4.1 2.4 4.2.7.1 1.5.1 1.5.9a.709.709 0 01-.8.7c-1.6 0-4.1-.2-5.6-.2-1.6 0-4.2.2-5.7.2a.808.808 0 01-.9-.7c0-.7.8-.8 1.5-.8 2-.1 2.1-1.2 2.1-4.1v-9c0-1.8 0-3.8-.8-5.2a5.04 5.04 0 00-4.8-2.5 6.355 6.355 0 00-4.9 2.1c-1.3 1.5-1.4 2.7-1.4 4.6v10.1c0 2.9.1 3.9 2.2 4 .6.1 1.4.1 1.4.8a.789.789 0 01-.8.8h-.1c-1.5 0-3.8-.2-5.2-.2-1.7 0-4.5.2-6.1.2-.4 0-.9-.1-.9-.7 0-.9.9-.9 1.7-.9 2.5-.1 2.5-1.2 2.5-4.9zm40.8 30.5c-7.9 0-13.9-5.7-13.9-12.9 0-6.2 5-12.7 13.9-12.7 9.6 0 14.1 6.8 14.1 12.6 0 7.2-5.9 13-14.1 13zm.4-1.5c5.3 0 7.9-6.5 7.9-10.8 0-5.7-2.8-11.7-8.3-11.7-5.1 0-8.2 4.7-8.2 10.6s3.3 11.9 8.6 11.9zm29.8 1.5c-7.9 0-13.9-5.7-13.9-12.9 0-6.2 5-12.7 13.9-12.7 9.6 0 14.1 6.8 14.1 12.6 0 7.2-5.9 13-14.1 13zm.4-1.5c5.3 0 7.9-6.5 7.9-10.8 0-5.7-2.8-11.7-8.3-11.7-5.1 0-8.2 4.7-8.2 10.6s3.3 11.9 8.6 11.9zm18.4-29.1c0-4 0-4.2-2.7-4.4-.6-.1-1.1-.1-1.1-.7s.5-.7 1.4-.8a14.572 14.572 0 005.8-1.8 3.946 3.946 0 011.5-.6c.6 0 .6.3.6 1.2v31.5c0 2.9.1 4.1 2.4 4.3.7.1 1.5.1 1.5.8a.709.709 0 01-.8.7c-1.8 0-3.7-.2-5.6-.2-2.4 0-4.5.2-6.2.2-.4 0-.9-.1-.9-.7 0-.9.9-.9 1.6-.9 2.5-.1 2.5-1.1 2.5-4.9zm33.4 12.5a9.674 9.674 0 01-3 6.7 11.114 11.114 0 01-7.1 3.2c-4 0-6.6-3.4-6.6-7.1a10.411 10.411 0 019.9-9.9 6.829 6.829 0 016.8 6.9.139.139 0 010 .2zm-3.3-2c0-2-.7-4-3.1-4-1.8 0-3.3 1.2-4.5 2.9a15.662 15.662 0 00-2.3 7.5c0 2.1.7 4.4 3.2 4.4 1.8 0 3.3-1.3 4.5-3.1a17.152 17.152 0 002.2-7.7z"></path><path d="M264.2 11.2a1.666 1.666 0 01-1.6 1.7h-.1a1.35 1.35 0 01-1.5-.9 6.468 6.468 0 01-.4-1.3.661.661 0 00-.7-.6 2.454 2.454 0 00-1.7 1.1c-1 1.1-1.5 3.1-2 4.6l-.6 2.1h2.9c.5 0 .8 0 .8.3a1.444 1.444 0 01-.2.7c-.1.3-.5.3-.8.3h-3.1c-1.4 4.6-2.7 9.3-4.2 13.9a16.857 16.857 0 01-2.8 5.9 8.63 8.63 0 01-6 3.1c-1.9 0-3.3-.8-3.3-2.4a1.799 1.799 0 011.7-1.9 1.843 1.843 0 011.9 1.4c0 .3.1.6.1.8 0 .5 0 1 .6 1s1.4-.7 1.9-1.5a39.195 39.195 0 002.3-6c1.4-4.8 2.9-9.6 4.3-14.3h-2.3c-.5 0-.7 0-.7-.3a1.446 1.446 0 01.2-.7c.1-.3.4-.3.9-.3h2.3a15.251 15.251 0 013.4-6.4 11.054 11.054 0 015.7-2.6c1.6 0 3 .7 3 2.3zm10.5 3c0-4.1 0-4.7-3.3-4.8-.7 0-1.6 0-1.6-.9 0-.8.5-.9 1.2-.9 1.8 0 3.6.2 6.4.2s5.4-.2 7.3-.2c.6 0 1.2.2 1.2.9 0 .9-1 .9-1.6.9-3.3.1-3.4.7-3.4 4.7v20.4c0 4 .3 5.5 4.9 5.5 5 0 6.7-2.3 8-5.3.4-1 .8-1.9 1.5-1.9.8 0 .8.6.8 1.3 0 1.9-.5 4-.5 5.9-.1 1.4 0 2-1.4 2-4.8 0-11.8-.2-16.6-.2-2.1 0-4.3.2-6.4.2-.6 0-1.2-.2-1.2-.9 0-.9 1-.9 1.6-.9 3.2-.1 3.2-.7 3.2-4.8zm37.5 8.7c0-2.3-.1-4.4-3.1-4.4s-4.4 1.7-5.6 4.3a4.29 4.29 0 01-2.1 2.3 10.548 10.548 0 01-2.4.6c-.7 0-1.1-.3-1.1-1 0-3 5.2-7.7 12.6-7.7 1.9 0 4.5.3 5.9 1.6 1.1.9 1.1 1.8 1.1 4.3v12.3c0 1.5.1 4 1.8 4a1.99 1.99 0 001.6-.7c.4-.4.7-.7.9-.7s.4.4.4.8c0 1.3-3.4 3.6-5.9 3.6-2 0-2.8-1.8-3.6-2.9-.3-.4-.5-.7-.7-.7-.3 0-1.4 1.1-2.9 2a11.168 11.168 0 01-5.9 1.9c-3 0-5.4-1.8-5.4-4.7 0-3.8 4.4-5.9 8-7.7 1.4-.6 2.8-1.3 4.3-2 2-.9 2-1 2-2.9zm-8.8 13.4a3.031 3.031 0 003 3.1h.4a6.059 6.059 0 004.4-2c1.1-1.2 1.1-2.1 1.1-3.6v-3.2c0-1 0-1.4-.2-1.4a2.947 2.947 0 00-1.3.5c-1.2.6-2.5 1.3-3.8 2-1.9 1-3.6 2.3-3.6 4.6zm33.5 5.2c-.2.6-.4 1-1.5 1a1.342 1.342 0 01-1.5-1.2l-8.4-18.6c-.9-2.1-1.5-3.5-3.5-3.6-.7-.1-1.4-.2-1.4-.8 0-.7.6-.7 1.3-.7 4.2 0 8.6.2 12.9.2 4.5 0 9-.2 13.3-.2.7 0 1.3.1 1.3.7s-.7.7-1.2.8c-.7 0-1.7.3-1.7 1.2a8.08 8.08 0 00.7 2.2l4.8 10.9c.3.7.6 1.8.9 1.8s.6-1 .9-1.8l4.1-9.7a6.109 6.109 0 00.8-3 1.586 1.586 0 00-1.5-1.7h-.1c-.5 0-1.5-.1-1.5-.7s.7-.7 1.1-.7c1.2 0 2.5.2 3.9.2 1.3 0 2.5-.2 3.8-.2.5 0 .9.1.9.7s-.9.7-1.6.8c-1.8.3-2.6 2-3.4 3.7l-7.8 18.6a1.246 1.246 0 01-1.4 1 1.51 1.51 0 01-1.6-1.1l-6.2-14.5h-.1zm-3.4-22.4c-1.3 0-2.6.3-2.6 1.4a11.91 11.91 0 001 3.2l4.5 9.9c.4.8.7 1.8 1 1.8s.6-.9 1-1.8l3-6.7a8.955 8.955 0 00.8-2.3 7.891 7.891 0 00-1.2-3c-1.1-2.3-1.5-2.5-4-2.5z" fill="#122851"></path></svg>