<svg version="1.1" id="Layer_1" xmlns="http://www.w3.org/2000/svg" x="0" y="0" viewBox="0 0 389.4 36.4" xml:space="preserve"><style>.st0{fill:#122851}</style><path class="st0" d="M28.8 4.1v.5c-3.3.4-3.5 2.4-3.7 7.2l-.2 8c-.1 4.7-2.1 9.5-10.2 9.5-11.3 0-10.2-8.2-10.2-11.1V10C4.4 6.2 4.4 5.1 0 4.6v-.5h12.6v.5c-4.8.7-4.8 1.5-4.8 5.5v7.5c0 .7-1.2 10.1 8.8 10.1 7.9 0 7.1-7.5 7.1-12v-3.8c0-4.6-.4-6.8-5.5-7.2v-.5l10.6-.1z"/><path class="st0" d="M45.4 24.6l-.1-10c0-2.6-.7-3.4-3.8-3.9v-.4H49v.4c-1.9.2-2.2 1.3-2.5 3.1-.4 3-.2 9.6-.1 15.6l-.4.1c-4.4-5.2-9.3-10-13.9-15v5c0 6.8-.2 8.2 3.8 9v.4h-8.2v-.4c3.7-.4 3.6-2.9 3.6-9.1v-4.1c0-2.7-.4-3.8-3.9-4.6v-.4h4.5l13.5 14.3zm10.1-.2c.1 2.8.1 3.6 3.4 4.1v.4h-9.2v-.4c3.3-.4 3.3-1.3 3.4-4.1v-9.6c-.1-2.8-.1-3.6-3.4-4.1v-.4h9.2v.4c-3.3.4-3.3 1.3-3.4 4.1v9.6zm24.9-14.1v.4c-2.6.2-3.4 2.4-5.1 6.4l-5.2 12.5h-.4l-6.2-14.8c-.8-2-1.5-3.8-3.9-4v-.4h8.7v.4c-3.9.4-2.6 2.6-1.9 4.3l4.4 10.6 3.2-7.8c2.4-5.6 2.8-6.5-1.4-7.1v-.4l7.8-.1zm.6 18.2c3.3-.4 3.3-1.3 3.4-4.1v-9.6c-.1-2.8-.1-3.6-3.4-4.1v-.4h14.7l-.3 4.2H95c-.2-3.5-2.7-3.6-5.5-3.6h-2.7v7.8h2.8c2.1 0 3.6-.2 3.9-2.5h.4v6.1h-.4c-.4-2.4-1.9-2.4-3.9-2.4h-2.8v4.5c0 1.6-.4 3.9 4.1 3.9 3.5 0 5.1-1.3 5.8-4.8h.4c0 2.1-.4 3.8-.9 5.4H81v-.4zm19.8-12.6c0-4.2-.1-4.8-3.2-5.1v-.4l6.7-.2c6.9-.2 7.4 3.2 7.4 4.5 0 2.3-1.4 3.6-3.4 4.5l.1.2c2.1 3.7 4.7 8.4 9.3 9.3l-.1.4c-2.9-.1-5-.1-6.6-1.7-1.8-1.9-3.2-4.3-3.8-5.5-1.1-2.3-2.1-1.6-4-1.9v4.4c0 3 .1 3.6 3.8 4.1v.4h-9.6v-.4c3.3-.4 3.3-1.3 3.4-4.1v-8.5zm2.4 3.7c2.6 0 5.7-1.2 5.7-4.3 0-3.2-2.8-4.5-5.7-4.5v8.8z"/><path class="st0" d="M127.1 15.1h-.4c-.4-2.2-1.2-4.4-3.9-4.4-1.8 0-3.2 1.2-3.2 3 0 4.7 8.6 4.6 8.6 10.1 0 3.5-3.5 5.4-6.7 5.4-1.7 0-3.4-.5-4.8-1.4l-.8-4.7h.5c.7 2.6 2.5 5.2 5.5 5.2 2 0 3.6-1.2 3.6-3.3 0-4.9-8.4-4.4-8.4-9.9 0-3.2 3.2-5.2 6.1-5.2 1.4 0 2.8.4 4 1.1l-.1 4.1zm7.9 9.3c.1 2.8.1 3.6 3.4 4.1v.4h-9.2v-.4c3.3-.4 3.3-1.3 3.4-4.1v-9.6c-.1-2.8-.1-3.6-3.4-4.1v-.4h9.2v.4c-3.3.4-3.3 1.3-3.4 4.1v9.6zm20.8-14.9h.2l.4 5.1-.4.1c-1-3.4-2.5-3.5-5.6-3.5h-1.6v12.7c0 3.4.2 4.3 3.8 4.7v.4h-10.1v-.4c3.7-.4 3.8-1.3 3.8-4.7V11.1h-1.6c-3.1 0-4.7.1-5.6 3.5l-.4-.1.4-5.1h.2l.3.2c.7.6.8.6 1.7.6h12.5c.9 0 1 0 1.7-.6l.3-.1zm18.7.8v.4c-2.4.2-3.6 1.5-4.7 3.5l-3.2 6.4v3.1c.1 3.2.1 4.3 3.6 4.8v.4h-9.6v-.4c3.5-.5 3.6-1.7 3.6-4.8v-2.2l-2.8-6.2c-1-2.3-1.8-4.2-4.5-4.6v-.4h7.6v.4c-2.2.3-1.9 1.2-1.1 3.1l2.7 5.9 2.4-4.5c1.7-3.2 1.5-4.2-.9-4.5v-.4h6.9zm28.5 9.3c0 5.9-4.3 9.6-10 9.6-5.8 0-10-3.8-10-9.7 0-5.8 4.3-9.6 10-9.6 7 .1 10 4.8 10 9.7zm-16.9-.7c0 4.2 2.2 9.7 7.2 9.7 4.5 0 6.5-4.6 6.5-8.5-.1-4.8-2.9-9.4-7.1-9.4-4.7-.1-6.6 4.5-6.6 8.2z"/><path class="st0" d="M216 16.3V23h-.4c-.2-2.8-1.6-2.7-3.9-2.7h-3v4.1c0 2.9.1 3.5 3.9 4.1v.4h-9.8v-.4c3.3-.4 3.3-1.3 3.4-4.1v-9.6c-.1-2.8-.1-3.6-3.4-4.1v-.4h14.5l-.4 4.3h-.4c-.2-3.5-2.5-3.7-5.3-3.7h-2.5v8.2h3c2.3 0 3.7-.2 3.9-2.8h.4zm15.7-4.7c0-5.6-.2-6.4-4.3-6.8v-.5l8.9-.3c9.2-.3 9.9 4.2 9.9 6 0 3.1-1.9 4.8-4.5 6l.2.3c2.8 4.9 6.3 11.2 12.3 12.5l-.1.5c-3.9-.2-6.7-.1-8.8-2.3-2.4-2.5-4.3-5.7-5.1-7.3-1.5-3-2.8-2.2-5.3-2.6V23c0 4 .1 4.7 5.1 5.4v.5h-12.8v-.5c4.4-.6 4.4-1.7 4.5-5.4V11.6zm3.2 4.8c3.5 0 7.6-1.6 7.6-5.7 0-4.3-3.8-6-7.6-6v11.7z"/><path class="st0" d="M258.3 24.4c.1 2.8.1 3.6 3.4 4.1v.4h-9.2v-.4c3.3-.4 3.3-1.3 3.4-4.1v-9.6c-.1-2.8-.1-3.6-3.4-4.1v-.4h9.2v.4c-3.3.4-3.3 1.3-3.4 4.1v9.6z"/><path class="st0" d="M278.5 15.9h-.4c-.5-3.1-2.3-5.3-5.6-5.3-5 0-7.8 4.1-7.8 8.8 0 5.4 4.1 9.1 8.1 9.1 3.6 0 5-2.6 6.2-5.6l.4.2c-.3 1.7-.8 3.3-1.5 4.9-1.8.8-3.6 1.2-5.6 1.2-5.7 0-10.8-3.3-10.8-9.5 0-4.9 3.8-9.8 11-9.8 2.1 0 4.2.4 6 1.5v4.5zm6.8 8.5c0 3 .1 3.6 3.6 4.1v.4h-9.5v-.4c3.3-.4 3.3-1.3 3.4-4.1v-9.6c-.1-2.8-.1-3.6-3.4-4.1v-.4h9.5v.4c-3.6.5-3.6 1.1-3.6 4.1v4h11v-4c0-3-.1-3.6-3.6-4.1v-.4h9.4v.4c-3.3.4-3.3 1.3-3.4 4.1v9.6c.1 2.8.1 3.6 3.4 4.1v.4h-9.4v-.4c3.6-.5 3.6-1.1 3.6-4.1v-4.5h-11v4.5zm30.5.5l5-10.9c.7-1.5 1.1-2.9.5-3.3l.1-.4h6v.4c-1.8.4-2.8 1-2.7 2.9l.6 10c.3 3.8.3 4.4 3.2 4.9v.4h-9v-.4c2.1-.3 3.5-.6 3.3-3l-.7-12h-.1l-7 15.4h-.3l-6.5-14.7h-.1c-.4 4.2-.7 7.2-.8 11.5-.1 1.1 0 2.3 3.3 2.8v.4H303v-.4c2.4-.4 2.7-1.6 3.1-3.8l1-7.7.4-3.7c.2-1.8-1.4-2.4-3-2.6v-.4h5.9v.3c-.6.6.1 2.3.3 2.7l5.1 11.6z"/><path class="st0" d="M348.1 19.6c0 5.9-4.3 9.6-10 9.6-5.8 0-10-3.8-10-9.7 0-5.8 4.3-9.6 10-9.6 6.9.1 10 4.8 10 9.7zm-16.9-.7c0 4.2 2.2 9.7 7.2 9.7 4.5 0 6.5-4.6 6.5-8.5-.1-4.8-2.9-9.4-7.1-9.4-4.7-.1-6.6 4.5-6.6 8.2z"/><path class="st0" d="M365.4 24.6l-.1-10c0-2.6-.7-3.4-3.8-3.9v-.4h7.5v.4c-1.9.2-2.2 1.3-2.5 3.1-.4 3-.2 9.6-.1 15.6l-.4.1c-4.4-5.2-9.3-10-13.9-15v5c0 6.8-.2 8.2 3.8 9v.4h-8.2v-.4c3.7-.4 3.6-2.9 3.6-9.1v-4.1c0-2.7-.4-3.8-3.9-4.6v-.4h4.5l13.5 14.3zm4.1-14.1l6.6-.2c12.1-.4 13.3 6.6 13.3 9.4 0 3.9-2.5 9.4-11.9 9.3l-8.2-.1v-.4c3.3-.4 3.3-1.3 3.4-4.1v-9.5c-.1-2.8-.1-3.6-3.2-4.1v-.3zm5.7 14.2c0 1.8.3 3.6 3.7 3.6 3.1 0 7.4-2 7.4-8.2 0-6.6-5.2-9.3-11.1-9.3v13.9z"/></svg>