<?xml version="1.0" encoding="UTF-8"?>
<svg id="Layer_2" data-name="Layer 2" xmlns="http://www.w3.org/2000/svg" viewBox="0 0 1628.13 390.3">
  <defs>
    <style>
      .cls-1 {
        fill: #fff;
      }
    </style>
  </defs>
  <g id="Layer_1-2" data-name="Layer 1">
    <g>
      <rect x="281.85" y="35.69" width="6.23" height=".57" transform="translate(248.92 320.93) rotate(-89.99)"/>
      <path class="cls-1" d="M801.3,114.99v-43.62h20.7c3.73,0,10.49,2,13.91,3.67,16.19,7.91,17.84,25.96,1.86,35.31-3.77,2.21-10.88,4.64-15.2,4.64h-21.27Z"/>
      <g>
        <path class="cls-1" d="M1628.13,0v390.3H0V0h1628.13ZM165.02,30.02H47.64l148.84,317.82,77.92-.12,157.73-252.29-107.17,160.04,89.89-166.54-96.12,164.84,80.83-170.48-.3-1.72-86.2,170.5,72-178.74-76.54,173.64,60.68-182.96-66.92,182.4,50.47-188.63-56.71,188.06,39.7-192.03-45.37,189.76,28.35-193.73-34.59,194.29,17.58-199.39-23.82,200.52,6.8-202.79-12.47,199.96-5.68-210.16v212.43l-17.02-203.93,9.65,192.03-26.66-185.23-.56,3.68,18.71,158.61-.56,3.68-4.38-10.64-30.22-150.8-.49,2.48,22.62,131.77-12.08-26.74-26.5-101.27.28,5.1,18.44,80.43-52.75-113.86ZM284.68,32.86v6.23s.57,0,.57,0v-6.23s-.57,0-.57,0ZM1073.51,188.63v-68.54h-47.64v32.01c0,2.22-2.53,7.19-4.26,8.78-9.35,8.59-27.11,2.63-35.71-4.54-25.12-20.95-22.57-65.12,5.77-82.02,15.47-9.22,34.9-8.72,51.9-4.48,5.77,1.44,11.17,3.91,16.88,5.5l5.69-22.65c-8.95-2.62-17.39-6.33-26.54-8.33-36.1-7.86-81.52-4.71-106.14,26.18-34.73,43.56-11.54,104.99,40.69,119.64,25.17,7.06,42.23.51,66.36-3.63,10.88-1.87,23.05-3.86,33,2.09ZM549.8,45.32h-52.46l66.62,142.76h35.75l66.62-142.76h-28.92l-43.1,93.47-44.51-93.47ZM719.07,45.32h-47.64v143.32h47.64V45.32ZM914.15,188.63l-47.02-54.18c-.28-1.24,4.64-2.98,5.79-3.71,36.1-22.69,29.1-63.74-8.69-79.47-9.87-4.11-19.74-5.35-30.31-5.98l-80.84.03v143.32h48.2v-56.65l50.19,56.65h62.66ZM1102.43,45.32v143.32h48.2V45.32h-48.2ZM1294.11,129.15l-71.17-83.84h-38.28v143.32h26.09v-83.84l70.6,83.84h38.85V45.32h-26.09v83.84ZM1354.22,45.32v143.32h48.2V45.32h-48.2ZM1582.19,188.63l-66.31-142.5-1.99-.84-32.93.58-67.19,142.76h28.64l10.43-22.33,66.05-.26,10.56,22.59h52.74ZM1311.7,266.8l1.42-.55,14.93-15.58c-18.01-29.66-51.41-43.68-85.68-38.65-67.13,9.85-92.31,94.11-36.68,135.47,38.89,28.91,95.74,18.43,121.59-22.34v-2.25s-15.29-14.73-15.29-14.73c-9.69,12.54-22.44,25.6-39.21,27.12-48.3,4.39-62.51-68.26-23.42-90.81,23.09-13.32,44.17.27,59.23,17.79,1.1,1.28,2.58,3.02,3.12,4.54ZM1528.76,211.45c-51.99,3.55-78,53.17-25.98,82.27,12.96,7.25,30.88,11.18,42.39,19.4,13.34,9.53,5.23,21-8.64,22.22-18.81,1.65-38.31-7.79-52.17-19.8l-13.84,18.85c23.91,26.44,65.18,36.17,98.91,24.76,36.68-12.41,49.87-50.96,16.11-76.15-11.45-8.54-23.97-12.19-36.81-17.61-5.72-2.42-22.22-9.54-20.76-17.28,1.61-8.57,13.63-8.97,20.47-8.48,14.83,1.06,28.73,7.35,41.41,14.6l12.13-19.88c-20.11-15.4-47.67-24.62-73.23-22.88ZM491.1,215.82h-52.74l67.17,143.36,34.83-.11,66.42-143.25h-28.07l-44.51,93.47-43.1-93.47ZM729.85,215.82h-117.96v143.32h117.96v-26.06h-70.32v-38.52h48.77v-26.06h-47.92l-.85-.85v-25.77h70.32v-26.06ZM755.37,215.82v143.32h48.2v-57.21l50.75,57.21h62.66l-48.2-54.67c14.46-6.9,27.98-19.67,29.9-36.41,3.36-29.25-25.83-48.82-51.8-51.61l-91.52-.63ZM927.77,359.14h75.14c43.37-2.96,81.21-40.3,71.46-85.54-7.24-33.6-39.32-55.62-72.6-57.77h-74.01s0,143.32,0,143.32ZM1149.5,215.82h-47.64v143.32h47.64v-143.32ZM1469.91,215.82h-140.07v26.06h45.93v117.26h48.2v-117.26h45.93v-26.06Z"/>
        <polygon class="cls-1" points="165.02 30.02 217.77 143.88 199.33 63.45 199.04 58.35 225.54 159.62 237.62 186.36 215 54.6 215.49 52.12 245.71 202.92 250.09 213.55 250.66 209.88 231.94 51.27 232.5 47.59 259.17 232.81 249.52 40.79 266.53 244.71 266.53 32.29 272.21 242.45 284.68 42.49 277.88 245.28 301.7 44.75 284.12 244.15 318.71 49.85 290.36 243.58 335.72 53.82 296.03 245.84 352.74 57.78 302.27 246.41 369.18 64.01 308.5 246.98 385.04 73.34 313.04 252.08 399.24 81.57 399.54 83.29 318.71 253.78 414.83 88.94 324.95 255.48 432.12 95.44 274.39 347.73 196.47 347.85 47.64 30.02 165.02 30.02"/>
        <path class="cls-1" d="M755.37,215.82l91.52.63c25.97,2.79,55.15,22.37,51.8,51.61-1.92,16.73-15.44,29.51-29.9,36.41l48.2,54.67h-62.66l-50.75-57.21v57.21h-48.2v-143.32ZM826.54,241.88c-7.27-.7-15.58.52-22.97,0v43.05h25.24c4.47,0,14.63-5.83,17.68-9.25,13.94-15.65-3.75-32.23-19.94-33.8Z"/>
        <path class="cls-1" d="M914.15,188.63h-62.66l-50.19-56.65v56.65h-48.2V45.32l80.84-.03c10.57.63,20.44,1.87,30.31,5.98,37.79,15.73,44.79,56.78,8.69,79.47-1.15.73-6.07,2.47-5.79,3.71l47.02,54.18ZM801.3,114.99h21.27c4.32,0,11.43-2.44,15.2-4.64,15.98-9.35,14.33-27.4-1.86-35.31-3.42-1.67-10.18-3.67-13.91-3.67h-20.7v43.62Z"/>
        <path class="cls-1" d="M927.77,359.14v-143.32h74.01c33.28,2.15,65.36,24.17,72.6,57.77,9.75,45.25-28.09,82.59-71.46,85.54h-75.14ZM975.97,333.08h24.1c2.63,0,10.24-4.42,12.46-6.24,20.96-17.22,20.97-62.55-.65-79.2-2.48-1.91-9.41-5.76-12.38-5.76h-23.53v91.2Z"/>
        <polygon class="cls-1" points="1294.11 129.15 1294.11 45.32 1320.19 45.32 1320.19 188.63 1281.35 188.63 1210.74 104.8 1210.74 188.63 1184.66 188.63 1184.66 45.32 1222.94 45.32 1294.11 129.15"/>
        <path class="cls-1" d="M1073.51,188.63c-9.95-5.95-22.12-3.96-33-2.09-24.14,4.14-41.19,10.69-66.36,3.63-52.23-14.65-75.43-76.07-40.69-119.64,24.63-30.88,70.04-34.04,106.14-26.18,9.15,1.99,17.6,5.71,26.54,8.33l-5.69,22.65c-5.71-1.59-11.1-4.06-16.88-5.5-17-4.24-36.44-4.74-51.9,4.48-28.34,16.9-30.89,61.07-5.77,82.02,8.6,7.17,26.36,13.13,35.71,4.54,1.73-1.59,4.26-6.56,4.26-8.78v-32.01h47.64v68.54Z"/>
        <path class="cls-1" d="M1528.76,211.45c25.56-1.74,53.12,7.49,73.23,22.88l-12.13,19.88c-12.67-7.24-26.58-13.54-41.41-14.6-6.85-.49-18.87-.08-20.47,8.48-1.45,7.74,15.04,14.87,20.76,17.28,12.84,5.43,25.36,9.07,36.81,17.61,33.77,25.2,20.57,63.74-16.11,76.15-33.73,11.41-75,1.68-98.91-24.76l13.84-18.85c13.86,12.01,33.35,21.46,52.17,19.8,13.87-1.22,21.98-12.68,8.64-22.22-11.51-8.22-29.43-12.15-42.39-19.4-52.02-29.11-26.01-78.73,25.98-82.27Z"/>
        <path class="cls-1" d="M1582.19,188.63h-52.74l-10.56-22.59-66.05.26-10.43,22.33h-28.64l67.19-142.76,32.93-.58,1.99.84,66.31,142.5ZM1506.77,139.92l-20.98-44.18-20.42,44.18h41.4Z"/>
        <polygon class="cls-1" points="729.85 215.82 729.85 241.88 659.53 241.88 659.53 267.66 660.38 268.51 708.3 268.51 708.3 294.56 659.53 294.56 659.53 333.08 729.85 333.08 729.85 359.14 611.89 359.14 611.89 215.82 729.85 215.82"/>
        <path class="cls-1" d="M1311.7,266.8c-.53-1.51-2.02-3.26-3.12-4.54-15.06-17.52-36.13-31.11-59.23-17.79-39.09,22.55-24.87,95.2,23.42,90.81,16.77-1.53,29.52-14.59,39.21-27.12l15.3,14.73v2.25c-25.86,40.77-82.71,51.26-121.6,22.34-55.62-41.36-30.45-125.62,36.68-135.47,34.26-5.03,67.66,8.99,85.68,38.65l-14.93,15.58-1.42.55Z"/>
        <polygon class="cls-1" points="549.8 45.32 594.31 138.78 637.41 45.32 666.33 45.32 599.71 188.08 563.97 188.08 497.34 45.32 549.8 45.32"/>
        <polygon class="cls-1" points="491.1 215.82 534.21 309.29 578.72 215.82 606.79 215.82 540.37 359.07 505.54 359.18 438.36 215.82 491.1 215.82"/>
        <polygon class="cls-1" points="1469.91 215.82 1469.91 241.88 1423.97 241.88 1423.97 359.14 1375.77 359.14 1375.77 241.88 1329.83 241.88 1329.83 215.82 1469.91 215.82"/>
        <rect class="cls-1" x="1102.43" y="45.32" width="48.2" height="143.32"/>
        <rect class="cls-1" x="1354.22" y="45.32" width="48.2" height="143.32"/>
        <rect class="cls-1" x="671.44" y="45.32" width="47.64" height="143.32"/>
        <rect class="cls-1" x="1101.86" y="215.82" width="47.64" height="143.32"/>
        <path class="cls-1" d="M826.54,241.88c16.19,1.57,33.88,18.15,19.94,33.8-3.05,3.42-13.21,9.25-17.68,9.25h-25.24v-43.05c7.39.52,15.69-.7,22.97,0Z"/>
        <path class="cls-1" d="M975.97,333.08v-91.2h23.53c2.97,0,9.9,3.86,12.38,5.76,21.62,16.64,21.61,61.97.65,79.2-2.22,1.83-9.83,6.24-12.46,6.24h-24.1Z"/>
      </g>
    </g>
  </g>
</svg>